<svg width="1024" height="1325" viewBox="0 0 1024 1325" fill="none" xmlns="http://www.w3.org/2000/svg">
<g clip-path="url(#clip0_139_23794)">
<path d="M1147.54 452.965C1147.54 454.448 1147.23 455.871 1146.67 456.919C1146.11 457.968 1145.35 458.557 1144.56 458.557L-78.3297 458.557C-79.1199 458.557 -79.8777 457.968 -80.4364 456.919C-80.9952 455.871 -81.3091 454.448 -81.3091 452.965C-81.3091 451.482 -80.9952 450.06 -80.4364 449.011C-79.8777 447.962 -79.1199 447.373 -78.3297 447.373L1144.56 447.373C1144.95 447.37 1145.34 447.513 1145.71 447.793C1146.07 448.073 1146.4 448.484 1146.67 449.004C1146.95 449.524 1147.17 450.142 1147.32 450.822C1147.47 451.502 1147.54 452.23 1147.54 452.965V452.965Z" fill="#FFF245"/>
<path d="M1147.54 -449.221C1147.54 -448.533 1147.47 -447.851 1147.34 -447.208C1115.83 -293.336 1078.64 -168.766 1033.62 -66.4535C992.092 27.9634 945.042 100.728 889.793 156.022C778.163 267.685 646.892 288.801 533.2 294.706L-78.3297 294.706C-79.1199 294.706 -79.8777 294.117 -80.4364 293.068C-80.9952 292.02 -81.3091 290.597 -81.3091 289.114C-81.3091 287.631 -80.9952 286.209 -80.4364 285.16C-79.8777 284.111 -79.1199 283.522 -78.3297 283.522L533.117 283.522C767.437 271.376 1007.53 204.539 1141.77 -451.234C1142.03 -452.44 1142.5 -453.44 1143.11 -454.066C1143.72 -454.692 1144.42 -454.905 1145.1 -454.667C1145.78 -454.43 1146.39 -453.758 1146.84 -452.765C1147.29 -451.772 1147.53 -450.519 1147.54 -449.221V-449.221Z" fill="#FFF245"/>
<path d="M1284.97 -323.654C1284.97 -322.966 1284.9 -322.285 1284.77 -321.641C1253.26 -167.769 1216.07 -43.1997 1171.06 59.1132C1129.52 153.53 1082.47 226.295 1027.22 281.589C915.594 393.252 784.323 414.368 670.631 420.273L-85.4694 420.273C-86.2596 420.273 -87.0174 419.684 -87.5761 418.635C-88.1348 417.586 -88.4487 416.164 -88.4487 414.681C-88.4487 413.198 -88.1348 411.775 -87.5761 410.727C-87.0174 409.678 -86.2596 409.089 -85.4694 409.089L670.548 409.089C904.868 396.943 1144.96 330.106 1279.21 -325.667C1279.46 -326.873 1279.93 -327.874 1280.54 -328.5C1281.15 -329.126 1281.85 -329.338 1282.53 -329.101C1283.21 -328.863 1283.82 -328.191 1284.27 -327.198C1284.72 -326.205 1284.96 -324.953 1284.97 -323.654Z" fill="#FFF245"/>
<path d="M1147.54 -240.456C1147.54 -239.595 1147.43 -238.747 1147.23 -237.973C1115.69 -118.749 1078.45 -22.3192 1033.36 56.7978C991.842 129.696 944.78 185.818 889.519 228.363C778.46 313.855 647.071 330.117 533.188 334.769L-78.3297 334.769C-79.1199 334.769 -79.8777 334.18 -80.4364 333.132C-80.9952 332.083 -81.3091 330.66 -81.3091 329.177C-81.3091 327.694 -80.9952 326.272 -80.4364 325.223C-79.8777 324.174 -79.1199 323.585 -78.3297 323.585L533.117 323.585C767.818 314.012 1008.2 262.43 1141.89 -242.938C1142.19 -244.069 1142.69 -244.976 1143.29 -245.514C1143.9 -246.052 1144.59 -246.188 1145.24 -245.9C1145.9 -245.612 1146.48 -244.918 1146.9 -243.93C1147.32 -242.941 1147.54 -241.717 1147.54 -240.456V-240.456Z" fill="#FFF245"/>
<path d="M1147.54 -31.6901C1147.54 -30.5431 1147.35 -29.4256 1146.99 -28.4914C1116.46 54.1165 1077.75 124.937 1032.97 180.116C991.484 231.429 944.458 270.864 889.209 300.659C779.45 359.868 653.244 371.298 533.164 374.833L-78.3297 374.833C-79.1199 374.833 -79.8777 374.243 -80.4365 373.195C-80.9952 372.146 -81.3091 370.724 -81.3091 369.24C-81.3091 367.757 -80.9952 366.335 -80.4365 365.286C-79.8777 364.238 -79.1199 363.648 -78.3297 363.648L533.117 363.648C778.234 356.423 1009.29 320.5 1142.1 -34.9111C1142.46 -35.8883 1142.98 -36.6221 1143.58 -37.0054C1144.18 -37.3887 1144.83 -37.4015 1145.44 -37.0419C1146.04 -36.6823 1146.57 -35.9691 1146.95 -35.0064C1147.32 -34.0437 1147.52 -32.8818 1147.52 -31.6901L1147.54 -31.6901Z" fill="#FFF245"/>
<path d="M1714.16 452.965C1714.16 454.448 1713.85 455.871 1713.29 456.919C1712.73 457.968 1711.97 458.557 1711.18 458.557L-78.3297 458.557C-79.1199 458.557 -79.8777 457.968 -80.4365 456.919C-80.9952 455.871 -81.3091 454.448 -81.3091 452.965C-81.3091 451.482 -80.9952 450.06 -80.4364 449.011C-79.8777 447.962 -79.1199 447.373 -78.3297 447.373L1711.18 447.373C1711.58 447.37 1711.96 447.513 1712.33 447.793C1712.69 448.073 1713.02 448.485 1713.29 449.004C1713.57 449.524 1713.79 450.142 1713.94 450.822C1714.09 451.502 1714.16 452.23 1714.16 452.965Z" fill="#FFF245"/>
<path d="M1715.92 616.79C1715.92 618.274 1715.6 619.696 1715.04 620.745C1714.49 621.793 1713.73 622.383 1712.94 622.383L533.117 622.382C298.857 634.573 58.7089 701.365 -75.5527 1357.14C-75.6815 1357.85 -75.886 1358.51 -76.1539 1359.07C-76.4218 1359.64 -76.7475 1360.09 -77.1114 1360.41C-77.4753 1360.73 -77.8699 1360.91 -78.2715 1360.93C-78.6731 1360.96 -79.0733 1360.83 -79.4482 1360.56C-79.823 1360.29 -80.1647 1359.88 -80.4526 1359.35C-80.7406 1358.83 -80.9689 1358.2 -81.1238 1357.5C-81.2787 1356.8 -81.3569 1356.06 -81.3539 1355.3C-81.3509 1354.55 -81.2666 1353.8 -81.1062 1353.11C-49.6085 1199.24 -12.4142 1074.67 32.5978 972.358C74.13 877.941 121.18 805.177 176.441 749.882C288.131 638.219 419.342 617.126 533.034 611.198L1712.94 611.198C1713.33 611.198 1713.72 611.343 1714.08 611.624C1714.44 611.905 1714.77 612.317 1715.04 612.836C1715.32 613.355 1715.54 613.972 1715.69 614.65C1715.84 615.329 1715.92 616.056 1715.92 616.79Z" fill="#FFF245"/>
<path d="M1708.75 576.73C1708.75 578.213 1708.43 579.635 1707.88 580.684C1707.32 581.733 1706.56 582.322 1705.77 582.322L533.117 582.322C298.415 591.895 58.0175 643.522 -75.6601 1148.85C-76.0142 1150.16 -76.6318 1151.17 -77.378 1151.63C-78.1242 1152.1 -78.9385 1151.99 -79.6433 1151.34C-80.3481 1150.68 -80.8862 1149.53 -81.1402 1148.13C-81.3942 1146.74 -81.3435 1145.21 -80.9991 1143.88C-49.4537 1024.66 -12.188 928.226 32.8598 849.109C74.392 776.211 121.442 720.089 176.715 677.544C287.773 592.052 419.222 575.79 533.057 571.115L1705.77 571.115C1706.16 571.115 1706.55 571.261 1706.91 571.543C1707.27 571.826 1707.6 572.239 1707.88 572.761C1708.16 573.283 1708.38 573.902 1708.52 574.583C1708.67 575.264 1708.75 575.994 1708.75 576.73Z" fill="#FFF245"/>
<path d="M1709.46 536.665C1709.46 538.148 1709.14 539.57 1708.59 540.619C1708.03 541.667 1707.27 542.257 1706.48 542.257L533.116 542.257C287.999 549.482 56.9323 585.405 -75.8873 940.816C-76.3408 942.032 -77.0332 942.861 -77.8121 943.119C-78.591 943.377 -79.3925 943.043 -80.0405 942.192C-80.6884 941.341 -81.1297 940.041 -81.2671 938.579C-81.4046 937.117 -81.227 935.613 -80.7734 934.397C-50.2307 851.793 -11.5163 780.973 33.2643 725.789C74.7369 674.476 121.763 635.041 177.024 605.246C286.783 546.037 412.989 534.607 533.069 531.072L1706.48 531.072C1706.87 531.072 1707.26 531.217 1707.62 531.498C1707.98 531.779 1708.31 532.191 1708.59 532.71C1708.86 533.23 1709.08 533.846 1709.23 534.525C1709.38 535.203 1709.46 535.93 1709.46 536.665Z" fill="#FFF245"/>
<path d="M1710.65 493.25C1710.65 494.733 1710.34 496.155 1709.78 497.204C1709.22 498.253 1708.46 498.842 1707.67 498.842L533.116 498.842C287.355 502.488 55.7404 520.271 -76.6143 695.795C-76.9322 696.261 -77.2973 696.602 -77.6873 696.795C-78.0774 696.989 -78.4843 697.032 -78.8835 696.921C-79.2826 696.811 -79.6657 696.549 -80.0093 696.153C-80.353 695.756 -80.6502 695.232 -80.8829 694.614C-81.1156 693.995 -81.2789 693.294 -81.3629 692.554C-81.4469 691.813 -81.4499 691.048 -81.3717 690.305C-81.2935 689.562 -81.1357 688.857 -80.9079 688.232C-80.6801 687.607 -80.3871 687.075 -80.0465 686.669C-20.2211 607.351 63.9992 554.159 177.429 524.028C286.497 495.084 412.822 489.447 533.092 487.658L1707.67 487.658C1708.06 487.658 1708.45 487.802 1708.81 488.083C1709.18 488.364 1709.5 488.776 1709.78 489.295C1710.06 489.815 1710.28 490.431 1710.43 491.11C1710.58 491.788 1710.65 492.515 1710.65 493.25Z" fill="#FFF245"/>
</g>
<defs>
<clipPath id="clip0_139_23794">
<rect width="1024" height="1725" fill="white" transform="translate(0 -400)"/>
</clipPath>
</defs>
</svg>
