<svg width="1920" height="1405" viewBox="0 0 1920 1405" fill="none" xmlns="http://www.w3.org/2000/svg">
<g clip-path="url(#clip0_139_23642)">
<path d="M2151.64 532.965C2151.64 534.448 2151.05 535.871 2150.01 536.919C2148.96 537.968 2147.54 538.557 2146.06 538.557L-146.869 538.557C-148.35 538.557 -149.771 537.968 -150.819 536.919C-151.867 535.871 -152.455 534.448 -152.455 532.965C-152.455 531.482 -151.867 530.06 -150.819 529.011C-149.771 527.962 -148.35 527.373 -146.869 527.373L2146.06 527.373C2146.79 527.37 2147.52 527.513 2148.2 527.793C2148.88 528.073 2149.49 528.484 2150.01 529.004C2150.53 529.524 2150.94 530.142 2151.22 530.822C2151.5 531.502 2151.64 532.23 2151.64 532.965V532.965Z" fill="#FFF245"/>
<path d="M2151.64 -369.221C2151.63 -368.533 2151.51 -367.851 2151.26 -367.208C2092.18 -213.336 2022.44 -88.7665 1938.04 13.5464C1860.17 107.963 1771.95 180.728 1668.36 236.022C1459.05 347.685 1212.92 368.801 999.75 374.706L-146.869 374.706C-148.35 374.706 -149.771 374.117 -150.819 373.068C-151.867 372.02 -152.455 370.597 -152.455 369.114C-152.455 367.631 -151.867 366.209 -150.819 365.16C-149.771 364.111 -148.35 363.522 -146.869 363.522L999.593 363.522C1438.94 351.376 1889.11 284.539 2140.83 -371.234C2141.31 -372.44 2142.19 -373.441 2143.33 -374.067C2144.47 -374.693 2145.78 -374.905 2147.06 -374.668C2148.33 -374.43 2149.49 -373.758 2150.32 -372.765C2151.16 -371.772 2151.63 -370.52 2151.64 -369.221V-369.221Z" fill="#FFF245"/>
<path d="M2409.33 -243.654C2409.32 -242.966 2409.19 -242.285 2408.95 -241.641C2349.86 -87.7691 2280.13 36.8003 2195.73 139.113C2117.86 233.53 2029.64 306.295 1926.04 361.589C1716.74 473.252 1470.61 494.368 1257.43 500.273L-160.256 500.273C-161.737 500.273 -163.158 499.684 -164.206 498.635C-165.253 497.586 -165.842 496.164 -165.842 494.681C-165.842 493.198 -165.253 491.776 -164.206 490.727C-163.158 489.678 -161.737 489.089 -160.256 489.089L1257.28 489.089C1696.63 476.943 2146.79 410.106 2398.51 -245.667C2398.99 -246.873 2399.88 -247.874 2401.01 -248.5C2402.15 -249.126 2403.47 -249.338 2404.74 -249.101C2406.02 -248.863 2407.17 -248.191 2408.01 -247.198C2408.84 -246.205 2409.31 -244.953 2409.33 -243.654Z" fill="#FFF245"/>
<path d="M2151.64 -160.455C2151.63 -159.595 2151.44 -158.747 2151.06 -157.973C2091.91 -38.7492 2022.08 57.6809 1937.55 136.798C1859.7 209.696 1771.46 265.819 1667.85 308.363C1459.61 393.855 1213.26 410.117 999.728 414.77L-146.869 414.77C-148.35 414.77 -149.771 414.18 -150.819 413.132C-151.867 412.083 -152.455 410.661 -152.455 409.177C-152.455 407.694 -151.867 406.272 -150.819 405.223C-149.771 404.175 -148.35 403.585 -146.869 403.585L999.593 403.585C1439.66 394.012 1890.38 342.43 2141.05 -162.938C2141.61 -164.069 2142.53 -164.976 2143.67 -165.514C2144.81 -166.052 2146.1 -166.188 2147.33 -165.9C2148.56 -165.612 2149.65 -164.918 2150.43 -163.93C2151.22 -162.941 2151.64 -161.717 2151.64 -160.455V-160.455Z" fill="#FFF245"/>
<path d="M2151.64 48.3099C2151.64 49.4569 2151.28 50.5744 2150.61 51.5086C2093.36 134.117 2020.78 204.937 1936.82 260.116C1859.03 311.429 1770.86 350.864 1667.27 380.659C1461.47 439.868 1224.83 451.298 999.683 454.833L-146.869 454.833C-148.35 454.833 -149.771 454.243 -150.819 453.195C-151.867 452.146 -152.455 450.724 -152.455 449.24C-152.455 447.757 -151.867 446.335 -150.819 445.286C-149.771 444.238 -148.35 443.648 -146.869 443.648L999.593 443.648C1459.19 436.423 1892.42 400.5 2141.43 45.0889C2142.11 44.1117 2143.09 43.3779 2144.21 42.9946C2145.34 42.6113 2146.56 42.5985 2147.7 42.9581C2148.83 43.3177 2149.82 44.0309 2150.52 44.9936C2151.23 45.9563 2151.6 47.1182 2151.6 48.3099L2151.64 48.3099Z" fill="#FFF245"/>
<path d="M3214.06 532.965C3214.06 534.448 3213.47 535.871 3212.42 536.919C3211.37 537.968 3209.95 538.557 3208.47 538.557L-146.869 538.557C-148.35 538.557 -149.771 537.968 -150.819 536.919C-151.867 535.871 -152.455 534.448 -152.455 532.965C-152.455 531.482 -151.867 530.06 -150.819 529.011C-149.771 527.962 -148.35 527.373 -146.869 527.373L3208.47 527.373C3209.2 527.37 3209.93 527.513 3210.61 527.793C3211.29 528.073 3211.91 528.484 3212.43 529.004C3212.94 529.524 3213.36 530.142 3213.64 530.822C3213.92 531.501 3214.06 532.23 3214.06 532.965Z" fill="#FFF245"/>
<path d="M3217.35 696.791C3217.35 698.274 3216.76 699.696 3215.71 700.745C3214.66 701.793 3213.24 702.383 3211.76 702.383L999.594 702.383C560.356 714.573 110.079 781.365 -141.662 1437.14C-141.903 1437.85 -142.287 1438.51 -142.789 1439.07C-143.291 1439.64 -143.902 1440.09 -144.584 1440.41C-145.266 1440.73 -146.006 1440.91 -146.759 1440.93C-147.512 1440.96 -148.263 1440.83 -148.966 1440.56C-149.668 1440.29 -150.309 1439.88 -150.849 1439.35C-151.389 1438.83 -151.817 1438.2 -152.107 1437.5C-152.398 1436.81 -152.545 1436.06 -152.539 1435.3C-152.533 1434.55 -152.375 1433.8 -152.074 1433.11C-93.0162 1279.24 -23.277 1154.67 61.1206 1052.36C138.993 957.941 227.212 885.177 330.826 829.882C540.245 718.219 786.265 697.126 999.438 691.198L3211.76 691.198C3212.49 691.198 3213.22 691.343 3213.9 691.624C3214.57 691.905 3215.19 692.317 3215.71 692.836C3216.23 693.356 3216.64 693.972 3216.92 694.65C3217.2 695.329 3217.35 696.056 3217.35 696.791Z" fill="#FFF245"/>
<path d="M3203.9 656.73C3203.9 658.213 3203.31 659.635 3202.26 660.684C3201.22 661.733 3199.8 662.322 3198.31 662.322L999.593 662.322C559.528 671.896 108.781 723.522 -141.864 1228.85C-142.528 1230.16 -143.686 1231.17 -145.085 1231.63C-146.484 1232.1 -148.011 1231.99 -149.333 1231.34C-150.654 1230.68 -151.663 1229.53 -152.139 1228.13C-152.615 1226.74 -152.52 1225.21 -151.875 1223.88C-92.7271 1104.66 -22.8538 1008.23 61.6108 929.109C139.484 856.211 227.702 800.089 331.339 757.544C539.573 672.052 786.04 655.79 999.481 651.115L3198.31 651.115C3199.05 651.115 3199.78 651.261 3200.46 651.543C3201.14 651.826 3201.75 652.24 3202.27 652.761C3202.79 653.283 3203.2 653.902 3203.48 654.583C3203.76 655.264 3203.9 655.994 3203.9 656.73Z" fill="#FFF245"/>
<path d="M3205.23 616.664C3205.23 618.148 3204.65 619.57 3203.6 620.619C3202.55 621.667 3201.13 622.257 3199.65 622.257L999.592 622.257C539.997 629.482 106.747 665.405 -142.29 1020.82C-143.14 1022.03 -144.438 1022.86 -145.899 1023.12C-147.359 1023.38 -148.862 1023.04 -150.077 1022.19C-151.292 1021.34 -152.119 1020.04 -152.377 1018.58C-152.635 1017.12 -152.302 1015.61 -151.451 1014.4C-94.1834 931.793 -21.594 860.973 62.3696 805.789C140.131 754.476 228.305 715.041 331.919 685.246C537.718 626.037 774.353 614.607 999.503 611.072L3199.65 611.072C3200.38 611.072 3201.11 611.217 3201.79 611.498C3202.46 611.779 3203.08 612.191 3203.6 612.71C3204.12 613.23 3204.53 613.846 3204.81 614.524C3205.09 615.203 3205.23 615.93 3205.23 616.664Z" fill="#FFF245"/>
<path d="M3207.47 573.25C3207.47 574.733 3206.89 576.155 3205.84 577.204C3204.79 578.253 3203.37 578.842 3201.89 578.842L999.593 578.842C538.791 582.488 104.513 600.271 -143.652 775.795C-144.248 776.261 -144.932 776.602 -145.664 776.795C-146.395 776.989 -147.158 777.032 -147.906 776.921C-148.655 776.811 -149.373 776.549 -150.017 776.153C-150.662 775.756 -151.219 775.232 -151.655 774.614C-152.092 773.995 -152.398 773.294 -152.555 772.554C-152.713 771.813 -152.718 771.048 -152.572 770.305C-152.425 769.562 -152.129 768.857 -151.702 768.232C-151.275 767.607 -150.726 767.075 -150.087 766.669C-37.9145 687.351 119.999 634.159 332.68 604.028C537.182 575.084 774.041 569.447 999.548 567.657L3201.89 567.657C3202.62 567.657 3203.35 567.802 3204.03 568.083C3204.7 568.364 3205.32 568.776 3205.84 569.295C3206.36 569.815 3206.77 570.431 3207.05 571.11C3207.33 571.788 3207.47 572.515 3207.47 573.25Z" fill="#FFF245"/>
</g>
<defs>
<clipPath id="clip0_139_23642">
<rect width="1920" height="1725" fill="white" transform="translate(0 -320)"/>
</clipPath>
</defs>
</svg>
