<svg width="1366" height="1469" viewBox="0 0 1366 1469" fill="none" xmlns="http://www.w3.org/2000/svg">
<g clip-path="url(#clip0_139_23718)">
<path d="M1530.8 596.965C1530.8 598.448 1530.39 599.871 1529.64 600.919C1528.89 601.968 1527.88 602.557 1526.83 602.557L-104.491 602.557C-105.545 602.557 -106.556 601.968 -107.301 600.919C-108.046 599.871 -108.465 598.448 -108.465 596.965C-108.465 595.482 -108.046 594.06 -107.301 593.011C-106.556 591.962 -105.545 591.373 -104.491 591.373L1526.83 591.373C1527.35 591.37 1527.87 591.513 1528.35 591.793C1528.84 592.073 1529.28 592.484 1529.64 593.004C1530.01 593.524 1530.31 594.142 1530.51 594.822C1530.7 595.501 1530.81 596.23 1530.8 596.965V596.965Z" fill="#FFF245"/>
<path d="M1530.8 -305.221C1530.8 -304.533 1530.71 -303.851 1530.53 -303.208C1488.5 -149.336 1438.88 -24.7665 1378.84 77.5465C1323.44 171.963 1260.67 244.728 1186.97 300.022C1038.06 411.685 862.944 432.801 711.281 438.706L-104.491 438.706C-105.545 438.706 -106.556 438.117 -107.301 437.068C-108.046 436.02 -108.465 434.597 -108.465 433.114C-108.465 431.631 -108.046 430.209 -107.301 429.16C-106.556 428.111 -105.545 427.522 -104.491 427.522L711.169 427.522C1023.75 415.376 1344.02 348.539 1523.11 -307.234C1523.45 -308.44 1524.08 -309.44 1524.89 -310.066C1525.7 -310.692 1526.64 -310.905 1527.54 -310.667C1528.45 -310.43 1529.27 -309.758 1529.87 -308.765C1530.46 -307.772 1530.79 -306.519 1530.8 -305.221V-305.221Z" fill="#FFF245"/>
<path d="M1714.13 -179.654C1714.13 -178.966 1714.04 -178.285 1713.86 -177.641C1671.83 -23.7691 1622.21 100.8 1562.17 203.113C1506.77 297.53 1444 370.295 1370.3 425.589C1221.39 537.252 1046.27 558.368 894.612 564.273L-114.015 564.273C-115.069 564.273 -116.08 563.684 -116.825 562.635C-117.571 561.586 -117.989 560.164 -117.989 558.681C-117.989 557.198 -117.571 555.776 -116.825 554.727C-116.08 553.678 -115.069 553.089 -114.015 553.089L894.5 553.089C1207.08 540.943 1527.35 474.106 1706.44 -181.667C1706.78 -182.873 1707.41 -183.874 1708.22 -184.5C1709.03 -185.126 1709.97 -185.338 1710.87 -185.101C1711.78 -184.863 1712.6 -184.191 1713.2 -183.198C1713.79 -182.205 1714.12 -180.953 1714.13 -179.654Z" fill="#FFF245"/>
<path d="M1530.8 -96.4554C1530.8 -95.595 1530.66 -94.7472 1530.39 -93.9726C1488.31 25.2508 1438.63 121.681 1378.49 200.798C1323.1 273.696 1260.32 329.819 1186.6 372.363C1038.45 457.855 863.183 474.117 711.265 478.77L-104.491 478.77C-105.545 478.77 -106.556 478.18 -107.301 477.132C-108.046 476.083 -108.465 474.661 -108.465 473.177C-108.465 471.694 -108.046 470.272 -107.301 469.223C-106.556 468.175 -105.545 467.585 -104.491 467.585L711.169 467.585C1024.26 458.012 1344.93 406.43 1523.27 -98.9383C1523.67 -100.068 1524.32 -100.976 1525.14 -101.514C1525.95 -102.051 1526.86 -102.188 1527.74 -101.9C1528.61 -101.612 1529.39 -100.918 1529.94 -99.9295C1530.5 -98.9411 1530.8 -97.7168 1530.8 -96.4554V-96.4554Z" fill="#FFF245"/>
<path d="M1530.8 112.31C1530.8 113.457 1530.55 114.574 1530.07 115.509C1489.34 198.116 1437.7 268.937 1377.96 324.116C1322.62 375.429 1259.89 414.864 1186.19 444.659C1039.77 503.868 871.418 515.298 711.233 518.833L-104.491 518.833C-105.545 518.833 -106.556 518.243 -107.301 517.195C-108.046 516.146 -108.465 514.724 -108.465 513.24C-108.465 511.757 -108.046 510.335 -107.301 509.286C-106.556 508.238 -105.545 507.648 -104.491 507.648L711.169 507.648C1038.15 500.423 1346.38 464.5 1523.54 109.089C1524.02 108.112 1524.72 107.378 1525.52 106.995C1526.32 106.611 1527.19 106.598 1528 106.958C1528.8 107.318 1529.51 108.031 1530.01 108.994C1530.51 109.956 1530.78 111.118 1530.77 112.31L1530.8 112.31Z" fill="#FFF245"/>
<path d="M2286.67 596.965C2286.67 598.448 2286.25 599.871 2285.5 600.919C2284.76 601.968 2283.75 602.557 2282.69 602.557L-104.491 602.557C-105.545 602.557 -106.556 601.968 -107.301 600.919C-108.046 599.871 -108.465 598.448 -108.465 596.965C-108.465 595.482 -108.046 594.06 -107.301 593.011C-106.556 591.962 -105.545 591.373 -104.491 591.373L2282.69 591.373C2283.21 591.37 2283.73 591.513 2284.22 591.793C2284.7 592.073 2285.14 592.484 2285.51 593.004C2285.88 593.524 2286.17 594.142 2286.37 594.822C2286.57 595.502 2286.67 596.23 2286.67 596.965Z" fill="#FFF245"/>
<path d="M2289.01 760.791C2289.01 762.274 2288.59 763.696 2287.84 764.745C2287.1 765.793 2286.09 766.383 2285.03 766.383L711.17 766.383C398.67 778.573 78.3165 845.365 -100.786 1501.14C-100.958 1501.85 -101.231 1502.51 -101.588 1503.07C-101.946 1503.64 -102.38 1504.09 -102.866 1504.41C-103.351 1504.73 -103.877 1504.91 -104.413 1504.93C-104.949 1504.96 -105.483 1504.83 -105.983 1504.56C-106.483 1504.29 -106.939 1503.88 -107.323 1503.35C-107.707 1502.83 -108.011 1502.2 -108.218 1501.5C-108.425 1500.81 -108.529 1500.06 -108.525 1499.3C-108.521 1498.55 -108.409 1497.8 -108.195 1497.11C-66.1771 1343.24 -16.5606 1218.67 43.4848 1116.36C98.8881 1021.94 161.652 949.177 235.369 893.882C384.362 782.219 559.395 761.126 711.058 755.198L2285.03 755.199C2285.55 755.199 2286.07 755.343 2286.55 755.624C2287.04 755.905 2287.47 756.317 2287.84 756.836C2288.21 757.356 2288.5 757.972 2288.7 758.651C2288.9 759.329 2289.01 760.056 2289.01 760.791Z" fill="#FFF245"/>
<path d="M2279.44 720.73C2279.44 722.213 2279.02 723.635 2278.28 724.684C2277.53 725.733 2276.52 726.322 2275.47 726.322L711.169 726.322C398.081 735.896 77.3939 787.522 -100.93 1292.85C-101.402 1294.16 -102.226 1295.17 -103.221 1295.63C-104.217 1296.1 -105.303 1295.99 -106.243 1295.34C-107.184 1294.68 -107.901 1293.53 -108.24 1292.13C-108.579 1290.74 -108.511 1289.21 -108.052 1287.88C-65.971 1168.66 -16.2591 1072.23 43.834 993.109C99.2373 920.211 162.001 864.089 235.734 821.544C383.884 736.052 559.235 719.79 711.09 715.115L2275.47 715.115C2275.99 715.115 2276.51 715.261 2276.99 715.543C2277.48 715.826 2277.91 716.24 2278.28 716.761C2278.65 717.283 2278.95 717.902 2279.14 718.583C2279.34 719.264 2279.44 719.994 2279.44 720.73Z" fill="#FFF245"/>
<path d="M2280.39 680.665C2280.39 682.148 2279.97 683.57 2279.23 684.619C2278.48 685.667 2277.47 686.257 2276.42 686.257L711.169 686.257C384.186 693.482 75.9467 729.405 -101.233 1084.82C-101.838 1086.03 -102.761 1086.86 -103.8 1087.12C-104.839 1087.38 -105.909 1087.04 -106.773 1086.19C-107.637 1085.34 -108.226 1084.04 -108.409 1082.58C-108.593 1081.12 -108.356 1079.61 -107.751 1078.4C-67.007 995.793 -15.3627 924.973 44.3739 869.789C99.6977 818.476 162.43 779.041 236.147 749.246C382.564 690.037 550.921 678.607 711.105 675.072L2276.42 675.072C2276.94 675.072 2277.46 675.217 2277.94 675.498C2278.42 675.779 2278.86 676.191 2279.23 676.71C2279.6 677.23 2279.89 677.846 2280.09 678.524C2280.29 679.203 2280.39 679.93 2280.39 680.665Z" fill="#FFF245"/>
<path d="M2281.98 637.25C2281.98 638.733 2281.57 640.155 2280.82 641.204C2280.08 642.253 2279.06 642.842 2278.01 642.842L711.169 642.842C383.328 646.488 74.3571 664.271 -102.202 839.795C-102.626 840.261 -103.113 840.602 -103.633 840.795C-104.154 840.989 -104.697 841.032 -105.229 840.921C-105.762 840.811 -106.273 840.549 -106.731 840.153C-107.19 839.756 -107.586 839.232 -107.896 838.614C-108.207 837.995 -108.425 837.294 -108.537 836.554C-108.649 835.813 -108.653 835.048 -108.548 834.305C-108.444 833.562 -108.234 832.857 -107.93 832.232C-107.626 831.607 -107.235 831.075 -106.781 830.669C-26.9745 751.351 85.3741 698.159 236.688 668.028C382.183 639.084 550.698 633.447 711.137 631.657L2278.01 631.658C2278.53 631.658 2279.05 631.802 2279.53 632.083C2280.01 632.364 2280.45 632.776 2280.82 633.295C2281.19 633.815 2281.48 634.431 2281.68 635.11C2281.88 635.788 2281.98 636.515 2281.98 637.25Z" fill="#FFF245"/>
</g>
<defs>
<clipPath id="clip0_139_23718">
<rect width="1366" height="1725" fill="white" transform="translate(0 -256)"/>
</clipPath>
</defs>
</svg>
