<svg width="142" height="140" viewBox="0 0 142 140" fill="none" xmlns="http://www.w3.org/2000/svg">
<path d="M64.2372 3.87747C67.2635 -1.29249 74.7362 -1.29249 77.7625 3.87748L78.8751 5.77808C81.2061 9.76035 86.4563 10.8763 90.2056 8.18646L91.995 6.90268C96.8625 3.41058 103.689 6.45002 104.351 12.4039L104.594 14.5927C105.104 19.1788 109.446 22.3338 113.966 21.4014L116.123 20.9564C121.99 19.746 126.99 25.2993 125.173 31.0077L124.505 33.1062C123.105 37.5032 125.789 42.1516 130.297 43.138L132.448 43.6088C138.3 44.8893 140.609 51.9963 136.628 56.4721L135.164 58.1175C132.097 61.565 132.658 66.9031 136.375 69.6377L138.148 70.9428C142.974 74.4929 142.193 81.9247 136.735 84.394L134.728 85.3018C130.524 87.2038 128.865 92.3086 131.149 96.3185L132.238 98.2323C135.202 103.438 131.466 109.91 125.476 109.946L123.273 109.959C118.659 109.986 115.068 113.975 115.522 118.567L115.74 120.759C116.33 126.72 110.284 131.112 104.797 128.709L102.78 127.825C98.5535 125.973 93.6501 128.157 92.1979 132.536L91.5048 134.627C89.6196 140.313 82.3102 141.867 78.2751 137.439L76.7917 135.811C73.6836 132.401 68.3161 132.401 65.208 135.811L63.7247 137.439C59.6896 141.867 52.3802 140.313 50.4949 134.627L49.8018 132.536C48.3497 128.157 43.4462 125.973 39.2196 127.825L37.2024 128.709C31.7153 131.112 25.6697 126.72 26.2602 120.759L26.4773 118.567C26.9322 113.975 23.3406 109.986 18.7263 109.959L16.5241 109.946C10.5336 109.91 6.79727 103.438 9.76145 98.2323L10.8511 96.3185C13.1344 92.3086 11.4757 87.2038 7.2716 85.3018L5.2651 84.394C-0.192873 81.9247 -0.973981 74.4929 3.85133 70.9428L5.62524 69.6377C9.34203 66.9031 9.90308 61.565 6.83606 58.1175L5.37226 56.4721C1.39051 51.9963 3.69971 44.8893 9.55182 43.6088L11.7032 43.138C16.2109 42.1516 18.8946 37.5032 17.495 33.1062L16.827 31.0077C15.01 25.2993 20.0102 19.746 25.8772 20.9564L28.0341 21.4014C32.5533 22.3338 36.8957 19.1788 37.4055 14.5927L37.6488 12.4039C38.3106 6.45001 45.1373 3.41059 50.0048 6.90268L51.7942 8.18646C55.5434 10.8763 60.7936 9.76035 63.1247 5.77808L64.2372 3.87747Z" fill="#FFF245"/>
<path fill-rule="evenodd" clip-rule="evenodd" d="M41.4887 68.4722C42.9879 66.9196 45.4618 66.8762 47.0145 68.3753L64.0575 84.8306C65.6101 86.3297 65.6535 88.8036 64.1544 90.3563C62.6553 91.909 60.1813 91.9524 58.6287 90.4532L41.5857 73.9979C40.033 72.4988 39.9896 70.0249 41.4887 68.4722Z" fill="black"/>
<path fill-rule="evenodd" clip-rule="evenodd" d="M58.8979 90.5366C57.4566 88.9301 57.5906 86.4594 59.1971 85.0181L95.1723 52.7433C96.7788 51.3021 99.2495 51.436 100.691 53.0425C102.132 54.649 101.998 57.1197 100.392 58.561L64.4163 90.8358C62.8098 92.277 60.3391 92.1431 58.8979 90.5366Z" fill="black"/>
</svg>
