<svg width="180" height="180" viewBox="0 0 180 180" fill="none" xmlns="http://www.w3.org/2000/svg">
<path d="M81.3474 4.9611C85.2194 -1.65371 94.7806 -1.6537 98.6526 4.96111L100.076 7.39288C103.059 12.4881 109.776 13.9159 114.573 10.4743L116.863 8.83176C123.09 4.36374 131.825 8.25259 132.672 15.8704L132.983 18.6709C133.635 24.5387 139.191 28.5754 144.973 27.3825L147.733 26.8131C155.24 25.2644 161.637 32.3697 159.312 39.6734L158.458 42.3584C156.667 47.9842 160.101 53.9317 165.868 55.1937L168.621 55.7961C176.108 57.4345 179.063 66.5277 173.969 72.2543L172.096 74.3595C168.171 78.7706 168.889 85.6005 173.645 89.0993L175.915 90.7691C182.088 95.3114 181.089 104.82 174.106 107.98L171.538 109.141C166.159 111.575 164.037 118.106 166.958 123.237L168.353 125.685C172.145 132.346 167.365 140.626 159.7 140.672L156.882 140.689C150.979 140.724 146.383 145.828 146.965 151.703L147.243 154.507C147.999 162.134 140.263 167.754 133.243 164.679L130.662 163.548C125.254 161.179 118.98 163.972 117.122 169.576L116.235 172.251C113.823 179.526 104.471 181.514 99.3084 175.849L97.4105 173.766C93.4338 169.402 86.5662 169.402 82.5895 173.766L80.6916 175.849C75.5288 181.514 66.1767 179.526 63.7645 172.251L62.8778 169.576C61.0198 163.972 54.746 161.179 49.3382 163.548L46.7572 164.679C39.7366 167.754 32.0015 162.134 32.757 154.507L33.0348 151.703C33.6167 145.828 29.0214 140.724 23.1176 140.689L20.2999 140.672C12.6353 140.626 7.85475 132.346 11.6473 125.685L13.0416 123.237C15.9629 118.106 13.8407 111.575 8.46163 109.141L5.89438 107.98C-1.08893 104.82 -2.08833 95.3114 4.0855 90.7691L6.35517 89.0993C11.1107 85.6005 11.8285 78.7706 7.90437 74.3595L6.03149 72.2543C0.936964 66.5276 3.89152 57.4345 11.3791 55.7961L14.1317 55.1937C19.8992 53.9317 23.333 47.9842 21.5422 42.3584L20.6875 39.6734C18.3627 32.3697 24.7603 25.2644 32.267 26.8131L35.0266 27.3825C40.8088 28.5754 46.3647 24.5387 47.017 18.6709L47.3283 15.8704C48.1751 8.25258 56.9096 4.36374 63.1374 8.83177L65.4269 10.4743C70.2239 13.9159 76.9414 12.4881 79.9239 7.39287L81.3474 4.9611Z" fill="#FFF245"/>
</svg>
