<svg width="46" height="46" viewBox="0 0 46 46" fill="none" xmlns="http://www.w3.org/2000/svg">
<path opacity="0.2" d="M46 23C46 35.7025 35.7025 46 23 46C10.2975 46 0 35.7025 0 23C0 10.2975 10.2975 0 23 0C35.7025 0 46 10.2975 46 23ZM2.3 23C2.3 34.4323 11.5677 43.7 23 43.7C34.4323 43.7 43.7 34.4323 43.7 23C43.7 11.5677 34.4323 2.3 23 2.3C11.5677 2.3 2.3 11.5677 2.3 23Z" fill="black"/>
<path d="M23 0C26.0204 3.6018e-08 29.0112 0.594913 31.8017 1.75077C34.5922 2.90663 37.1277 4.6008 39.2635 6.73655C41.3992 8.87229 43.0934 11.4078 44.2492 14.1983C45.4051 16.9888 46 19.9796 46 23C46 26.0204 45.4051 29.0112 44.2492 31.8017C43.0934 34.5922 41.3992 37.1277 39.2635 39.2635C37.1277 41.3992 34.5922 43.0934 31.8017 44.2492C29.0112 45.4051 26.0204 46 23 46L23 41.86C25.4767 41.86 27.9292 41.3722 30.2174 40.4244C32.5056 39.4766 34.5847 38.0873 36.336 36.336C38.0873 34.5847 39.4766 32.5056 40.4244 30.2174C41.3722 27.9292 41.86 25.4767 41.86 23C41.86 20.5233 41.3722 18.0708 40.4244 15.7826C39.4766 13.4944 38.0873 11.4153 36.336 9.66397C34.5847 7.91265 32.5056 6.52344 30.2174 5.57563C27.9292 4.62783 25.4767 4.14 23 4.14V0Z" fill="black"/>
</svg>
