<svg width="46" height="46" viewBox="0 0 46 46" fill="none" xmlns="http://www.w3.org/2000/svg">
<path opacity="0.2" d="M46 23C46 35.7025 35.7025 46 23 46C10.2975 46 0 35.7025 0 23C0 10.2975 10.2975 0 23 0C35.7025 0 46 10.2975 46 23ZM2.3 23C2.3 34.4323 11.5677 43.7 23 43.7C34.4323 43.7 43.7 34.4323 43.7 23C43.7 11.5677 34.4323 2.3 23 2.3C11.5677 2.3 2.3 11.5677 2.3 23Z" fill="black"/>
<path d="M46 23C46 35.7025 35.7025 46 23 46C10.2975 46 0 35.7025 0 23C0 10.2975 10.2975 0 23 0C35.7025 0 46 10.2975 46 23ZM4.14 23C4.14 33.4161 12.5839 41.86 23 41.86C33.4161 41.86 41.86 33.4161 41.86 23C41.86 12.5839 33.4161 4.14 23 4.14C12.5839 4.14 4.14 12.5839 4.14 23Z" fill="black"/>
</svg>
